<svg width="800" height="800" viewBox="0 0 800 800" fill="none" xmlns="http://www.w3.org/2000/svg">
<path d="M400 155.242C405.695 155.236 411.335 156.357 416.596 158.539C421.857 160.721 426.634 163.922 430.653 167.958L716.968 454.273C724.575 462.501 728.702 473.354 728.484 484.557C728.266 495.759 723.721 506.443 715.8 514.369C707.88 522.295 697.199 526.848 685.996 527.073C674.793 527.299 663.938 523.179 655.705 515.579L400 259.874L144.295 515.579C136.062 523.179 125.207 527.299 114.004 527.073C102.801 526.848 92.1203 522.295 84.1999 514.369C76.2794 506.443 71.734 495.759 71.5162 484.557C71.2984 473.354 75.4251 462.501 83.0315 454.273L369.347 167.958C373.366 163.922 378.143 160.721 383.404 158.539C388.665 156.357 394.305 155.236 400 155.242Z" fill="#24B1FF" fill-opacity="0.5"/>
<path d="M399.508 376.16C405.203 376.154 410.843 377.275 416.104 379.457C421.365 381.639 426.142 384.84 430.161 388.876L716.477 675.191C724.083 683.419 728.21 694.272 727.992 705.475C727.774 716.677 723.229 727.361 715.308 735.287C707.388 743.213 696.707 747.766 685.504 747.991C674.302 748.217 663.446 744.097 655.213 736.497L399.508 480.791L143.803 736.497C135.57 744.097 124.715 748.217 113.512 747.991C102.309 747.766 91.6284 743.213 83.7079 735.287C75.7875 727.361 71.2421 716.677 71.0243 705.475C70.8065 694.272 74.9332 683.419 82.5396 675.191L368.855 388.876C372.874 384.84 377.651 381.639 382.912 379.457C388.173 377.275 393.813 376.154 399.508 376.16Z" fill="#24B1FF" fill-opacity="0.5"/>
</svg>
